#!OML:ASF E:\Steps\Project 1\Capture day 1\Session 2\Subject.ASF
:FULLY-SPECIFIED
:DEGREES
142
root 8.88955 16.2861 31.7214 -155.786 -1.95 179.718
lowerback -27.9567 -1.13776 -6.26819
upperback -2.13139 -0.154921 -0.500459
thorax 13.1766 -0.709401 2.91837
lowerneck 5.34505 -0.641336 -2.21404
upperneck -15.384 -0.798937 6.63193
head -5.46481 -1.00017 2.52261
rclavicle 4.47266e-016 2.06736e-014
rhumerus -34.887 -20.2381 -77.5301
rradius 27.1855
rwrist 3.92345
rhand -5.0064 -53.1811
rfingers 7.12502
rthumb 20.7873 -82.0876
lclavicle 4.47266e-016 2.06736e-014
lhumerus -27.8754 9.7234 79.9758
lradius 16.5875
lwrist -10.2575
lhand -19.9807 -11.9062
lfingers 7.12502
lthumb 6.3584 17.9784
rfemur -23.7328 7.06135 19.4088
rtibia 10.2027
rfoot -19.9555 -6.92287
rtoes -33.8029
lfemur -25.4105 -9.56687 -18.9864
ltibia 12.5492
lfoot -9.88055 1.08905
ltoes -30.8105
143
root 8.88511 16.285 31.7213 -155.714 -1.92231 179.69
lowerback -28.0643 -1.11452 -6.24035
upperback -2.13068 -0.123878 -0.545234
thorax 13.2316 -0.695813 2.86161
lowerneck 5.36794 -0.644029 -2.15238
upperneck -15.544 -0.805323 6.61989
head -5.51873 -1.01465 2.51252
rclavicle -1.49585e-014 7.15625e-015
rhumerus -34.8323 -20.0633 -77.7133
rradius 27.4251
rwrist 3.60651
rhand -4.9769 -53.4474
rfingers 7.12502
rthumb 20.8156 -82.3508
lclavicle -1.49585e-014 7.15625e-015
lhumerus -27.8209 9.87021 79.9877
lradius 16.8356
lwrist -10.4712
lhand -20.173 -11.5771
lfingers 7.12502
lthumb 6.17277 18.3129
rfemur -23.8416 7.04813 19.3055
rtibia 10.2731
rfoot -19.9988 -6.8933
rtoes -33.7024
lfemur -25.5109 -9.73582 -18.9833
ltibia 12.5478
lfoot -9.8518 1.27445
ltoes -31.1697
144
root 8.88699 16.2839 31.722 -155.698 -1.93063 179.718
lowerback -28.1226 -1.11185 -6.23389
upperback -2.09823 -0.112037 -0.554576
thorax 13.3002 -0.691033 2.8514
lowerneck 5.37235 -0.645867 -2.09451
upperneck -15.6948 -0.811804 6.60564
head -5.56664 -1.02856 2.50205
rclavicle -2.48481e-015 1.59028e-015
rhumerus -34.7517 -19.9738 -77.8538
rradius 27.6189
rwrist 3.39653
rhand -4.90398 -53.2907
rfingers 7.12502
rthumb 20.8857 -82.1864
lclavicle -2.48481e-015 1.59028e-015
lhumerus -27.8033 9.69961 80.107
lradius 17.289
lwrist -10.2363
lhand -20.4357 -11.1129
lfingers 7.12502
lthumb 5.91914 18.7844
rfemur -23.8665 7.11748 19.3497
rtibia 10.2416
rfoot -19.9539 -6.91414
rtoes -33.8258
lfemur -25.5266 -9.6441 -18.9622
ltibia 12.5347
lfoot -9.82502 1.18747
ltoes -31.1651
145
root 8.88813 16.2842 31.7187 -155.768 -1.9662 179.782
lowerback -28.0982 -1.12101 -6.18867
upperback -2.08028 -0.137493 -0.531428
thorax 13.3113 -0.699264 2.84264
lowerneck 5.4372 -0.637112 -2.06421
upperneck -15.8425 -0.803656 6.58677
head -5.62464 -1.03253 2.4943
rclavicle 9.14409e-015 -1.66979e-014
rhumerus -34.6829 -19.7934 -77.9938
rradius 27.7867
rwrist 3.11518
rhand -4.90329 -52.893
rfingers 7.12502
rthumb 20.8863 -81.7886
lclavicle 9.14409e-015 -1.66979e-014
lhumerus -27.9072 9.02359 80.3992
lradius 17.9065
lwrist -9.45635
lhand -20.5088 -10.9543
lfingers 7.12502
lthumb 5.84857 18.945
rfemur -23.7592 7.32332 19.3898
rtibia 10.1755
rfoot -19.963 -7.16673
rtoes -34.3403
lfemur -25.4191 -9.78844 -18.838
ltibia 12.4777
lfoot -9.83677 1.25381
ltoes -30.376
146
root 8.89247 16.2844 31.7199 -155.779 -1.90542 179.836
lowerback -28.0358 -1.10713 -6.21836
upperback -2.11314 -0.123688 -0.494877
thorax 13.2375 -0.694413 2.90779
lowerneck 5.50083 -0.641808 -2.05973
upperneck -16.0031 -0.815365 6.58192
head -5.6853 -1.04624 2.4968
rclavicle 1.98785e-015 2.50469e-014
rhumerus -34.6635 -19.4526 -78.1568
rradius 28.0632
rwrist 2.61837
rhand -4.90745 -52.9429
rfingers 7.12502
rthumb 20.8823 -81.839
lclavicle 1.98785e-015 2.50469e-014
lhumerus -27.8418 9.1478 80.4646
lradius 18.0002
lwrist -9.62064
lhand -20.349 -11.1792
lfingers 7.12502
lthumb 6.00287 18.7157
rfemur -23.7588 7.56841 19.4387
rtibia 10.1905
rfoot -19.9713 -7.33791
rtoes -34.4488
lfemur -25.395 -9.64324 -18.7849
ltibia 12.4657
lfoot -9.80783 1.191
ltoes -30.0092
147
root 8.89138 16.2849 31.7207 -155.807 -1.89232 179.843
lowerback -27.9933 -1.09792 -6.20155
upperback -2.09921 -0.116165 -0.489235
thorax 13.2308 -0.688587 2.90789
lowerneck 5.50586 -0.647599 -2.0268
upperneck -16.1554 -0.829572 6.57305
head -5.73344 -1.06302 2.49281
rclavicle 5.81445e-015 -2.62396e-014
rhumerus -34.6075 -19.2327 -78.2873
rradius 28.307
rwrist 2.31026
rhand -4.65194 -52.9528
rfingers 7.12502
rthumb 21.1278 -81.8216
lclavicle 5.81445e-015 -2.62396e-014
lhumerus -27.69 9.01449 80.6164
lradius 18.1149
lwrist -9.52842
lhand -19.9489 -11.3187
lfingers 7.12502
lthumb 6.38915 18.565
rfemur -23.7337 7.5958 19.4306
rtibia 10.175
rfoot -19.8512 -7.27675
rtoes -33.9441
lfemur -25.3637 -9.6436 -18.7954
ltibia 12.4498
lfoot -9.86414 1.31069
ltoes -30.8227
148
root 8.88771 16.2835 31.7222 -155.754 -1.93773 179.837
lowerback -28.0609 -1.11355 -6.1484
upperback -2.09769 -0.148867 -0.499485
thorax 13.272 -0.701928 2.85231
lowerneck 5.56471 -0.637264 -1.96594
upperneck -16.3047 -0.817882 6.54924
head -5.79152 -1.06732 2.47826
rclavicle 8.15017e-015 -2.90226e-014
rhumerus -34.4967 -19.1423 -78.4174
rradius 28.4254
rwrist 2.18393
rhand -4.53281 -52.6469
rfingers 7.12502
rthumb 21.2422 -81.5029
lclavicle 8.15017e-015 -2.90226e-014
lhumerus -27.5615 8.62285 80.799
lradius 18.2885
lwrist -9.14135
lhand -19.8908 -11.2633
lfingers 7.12502
lthumb 6.44528 18.6187
rfemur -23.8065 7.49231 19.4265
rtibia 10.1932
rfoot -19.8207 -7.21448
rtoes -33.8251
lfemur -25.46 -9.66996 -18.8077
ltibia 12.4753
lfoot -9.91424 1.37675
ltoes -31.7317
149
root 8.88295 16.2832 31.7225 -155.772 -1.93603 179.882
lowerback -28.0464 -1.09477 -5.99603
upperback -2.10283 -0.171809 -0.510976
thorax 13.2606 -0.70236 2.74233
lowerneck 5.5829 -0.627589 -1.92957
upperneck -16.4537 -0.812825 6.52193
head -5.84207 -1.07348 2.46675
rclavicle 6.95746e-015 1.15295e-014
rhumerus -34.4276 -18.8794 -78.6185
rradius 28.5801
rwrist 1.96744
rhand -4.80209 -52.844
rfingers 7.12502
rthumb 20.9836 -81.7289
lclavicle 6.95746e-015 1.15295e-014
lhumerus -27.6087 8.36727 80.9166
lradius 18.6535
lwrist -8.80119
lhand -20.0744 -11.3456
lfingers 7.12502
lthumb 6.26794 18.5417
rfemur -23.8185 7.37244 19.4719
rtibia 10.1982
rfoot -19.8864 -7.20108
rtoes -34.2562
lfemur -25.4789 -9.73261 -18.7694
ltibia 12.5216
lfoot -9.88052 1.4649
ltoes -31.7156
150
root 8.88382 16.2827 31.726 -155.714 -1.86288 179.904
lowerback -28.0838 -1.08321 -5.96415
upperback -2.12276 -0.170123 -0.508008
thorax 13.2566 -0.701376 2.72766
lowerneck 5.65155 -0.618161 -1.92519
upperneck -16.5984 -0.806232 6.5062
head -5.89986 -1.07683 2.4645
rclavicle 1.2424e-015 6.36111e-015
rhumerus -34.4023 -18.4879 -78.8484
rradius 28.8653
rwrist 1.68824
rhand -4.96384 -53.3876
rfingers 7.12502
rthumb 20.8282 -82.2896
lclavicle 1.2424e-015 6.36111e-015
lhumerus -27.5011 8.05732 81.0893
lradius 18.7338
lwrist -8.45685
lhand -20.0127 -11.512
lfingers 7.12502
lthumb 6.32751 18.3735
rfemur -23.9484 7.33978 19.5184
rtibia 10.2526
rfoot -19.9936 -7.18456
rtoes -34.7654
lfemur -25.5871 -9.57369 -18.7755
ltibia 12.6177
lfoot -9.82401 1.30444
ltoes -30.8092
151
root 8.88249 16.2838 31.7249 -155.759 -1.86443 179.88
lowerback -28.0415 -1.07525 -5.9621
upperback -2.12234 -0.159177 -0.532457
thorax 13.2335 -0.694415 2.70262
lowerneck 5.72833 -0.619347 -1.88484
upperneck -16.7557 -0.80931 6.50074
head -5.96286 -1.0887 2.46054
rclavicle -1.44119e-015 -2.82274e-014
rhumerus -34.4411 -18.2031 -79.0463
rradius 29.185
rwrist 1.40009
rhand -4.97798 -53.4651
rfingers 7.12502
rthumb 20.8146 -82.3686
lclavicle -1.44119e-015 -2.82274e-014
lhumerus -27.4783 7.5927 81.3059
lradius 19.0091
lwrist -8.19834
lhand -19.8466 -11.3635
lfingers 7.12502
lthumb 6.48795 18.5171
rfemur -23.8907 7.35965 19.4672
rtibia 10.2169
rfoot -20.038 -7.24463
rtoes -34.9759
lfemur -25.5028 -9.65937 -18.7981
ltibia 12.57
lfoot -9.79659 1.30419
ltoes -30.2211
152
root 8.88507 16.2842 31.7257 -155.753 -1.88727 179.869
lowerback -28.0255 -1.10032 -6.00202
upperback -2.12991 -0.182063 -0.531818
thorax 13.2181 -0.706987 2.7176
lowerneck 5.7665 -0.612768 -1.8579
upperneck -16.9089 -0.806206 6.49001
head -6.01814 -1.09658 2.45634
rclavicle -6.90777e-015 5.12864e-014
rhumerus -34.3834 -18.0626 -79.1756
rradius 29.3433
rwrist 1.23111
rhand -4.80346 -52.9398
rfingers 7.12502
rthumb 20.9822 -81.8248
lclavicle -6.90777e-015 5.12864e-014
lhumerus -27.4073 7.33644 81.44
lradius 19.1763
lwrist -8.05764
lhand -20.08 -11.6133
lfingers 7.12502
lthumb 6.2626 18.2742
rfemur -23.8868 7.4817 19.4584
rtibia 10.1761
rfoot -19.9181 -7.36785
rtoes -35.0128
lfemur -25.4886 -9.60671 -18.7987
ltibia 12.5453
lfoot -9.83382 1.23489
ltoes -30.1882
153
root 8.88361 16.2852 31.7245 -155.787 -1.92236 179.865
lowerback -28.0182 -1.13914 -5.98769
upperback -2.10862 -0.235228 -0.51343
thorax 13.2447 -0.730163 2.71025
lowerneck 5.80237 -0.592263 -1.85785
upperneck -17.0541 -0.787709 6.47237
head -6.07112 -1.09428 2.45323
rclavicle 1.49089e-015 -2.62396e-014
rhumerus -34.2674 -17.9393 -79.2748
rradius 29.4625
rwrist 1.07772
rhand -4.62274 -52.7171
rfingers 7.12502
rthumb 21.1558 -81.5828
lclavicle 1.49089e-015 -2.62396e-014
lhumerus -27.363 7.16111 81.5472
lradius 19.3368
lwrist -7.83159
lhand -20.2379 -11.8562
lfingers 7.12502
lthumb 6.1101 18.0356
rfemur -23.8533 7.34112 19.4705
rtibia 10.1992
rfoot -19.9419 -7.23759
rtoes -34.7215
lfemur -25.439 -9.82463 -18.7473
ltibia 12.5368
lfoot -9.86085 1.4022
ltoes -29.6755
